<?xml version="1.0" encoding="UTF-8"?>
<svg version="1.1" xmlns="http://www.w3.org/2000/svg" width="128" height="128">
<path d="M0 0 C5.82248677 3.91898148 9.54072017 9.28966638 11.6171875 15.9921875 C13.30879792 24.86451155 11.49291449 33.10803749 6.90234375 40.8515625 C3.21307057 45.7289067 -2.26178779 49.0872626 -8 51 C-9.69033574 51.11388787 -11.38427711 51.17800325 -13.078125 51.2109375 C-14.07457031 51.23929688 -15.07101563 51.26765625 -16.09765625 51.296875 C-18.18342304 51.34856687 -20.26938495 51.39295143 -22.35546875 51.4296875 C-28.30127736 51.61334182 -32.7563486 52.11528121 -38 55 C-41.25015365 58.46683057 -42.11169081 61.7114416 -42.20532227 66.37963867 C-42.22550415 67.27259644 -42.24568604 68.1655542 -42.26647949 69.08557129 C-42.28295532 70.02026245 -42.29943115 70.95495361 -42.31640625 71.91796875 C-42.33505737 72.77990845 -42.3537085 73.64184814 -42.3729248 74.52990723 C-42.44121161 77.74900077 -42.50136728 80.96826265 -42.5625 84.1875 C-42.706875 91.385625 -42.85125 98.58375 -43 106 C-61.15 106 -79.3 106 -98 106 C-98 86.2 -98 66.4 -98 46 C-93.05 47.485 -93.05 47.485 -88 49 C-76.7993423 51.15064175 -67.47920111 49.27085612 -58 43 C-48.94948753 36.56021228 -45.70391048 28.04345979 -43.46875 17.4921875 C-41.50073125 9.23168776 -36.76024648 3.43943321 -29.90234375 -1.515625 C-20.66034565 -6.42165763 -8.72257559 -5.47864252 0 0 Z " fill="#FEFEFE" transform="translate(106,12)"/>
</svg>
