<?xml version="1.0" encoding="UTF-8"?>
<svg version="1.1" xmlns="http://www.w3.org/2000/svg" width="512" height="512">
<path d="M0 0 C3.97640012 3.17278632 6.01058558 7.25162058 8.484375 11.64453125 C9.04463379 12.61616211 9.60489258 13.58779297 10.18212891 14.58886719 C11.38310784 16.67427256 12.57874332 18.76276263 13.76953125 20.85400391 C15.58867209 24.04570774 17.42416626 27.22737786 19.265625 30.40625 C22.42051337 35.85465644 25.56315932 41.30999929 28.70214844 46.76757812 C31.8330242 52.20853682 34.97149305 57.64511114 38.109375 63.08203125 C41.87307091 69.60433123 45.63582125 76.12716892 49.39453125 82.65234375 C55.43992659 93.14435219 61.50047719 103.62684801 67.609375 114.08203125 C74.35638694 125.62932641 81.04276818 137.21105152 87.71826172 148.79980469 C90.84617648 154.22863067 93.97795948 159.65522406 97.109375 165.08203125 C98.35939379 167.24868708 99.60939378 169.41535375 100.859375 171.58203125 C101.478125 172.65453125 102.096875 173.72703125 102.734375 174.83203125 C108.359375 184.58203125 108.359375 184.58203125 110.23461914 187.83251953 C111.48373018 189.99760196 112.73291629 192.16264107 113.98217773 194.32763672 C117.12139809 199.76818831 120.25928063 205.20950341 123.39453125 210.65234375 C129.43992659 221.14435219 135.50047719 231.62684801 141.609375 242.08203125 C148.35638694 253.62932641 155.04276818 265.21105152 161.71826172 276.79980469 C164.84617646 282.22863063 167.97791231 287.65525132 171.109375 293.08203125 C174.87301419 299.604364 178.63582122 306.12716887 182.39453125 312.65234375 C188.43992659 323.14435219 194.50047719 333.62684801 200.609375 344.08203125 C207.35208095 355.62195684 214.03400025 367.19638646 220.70507812 378.77783203 C223.26435163 383.21849967 225.82784186 387.65672378 228.39257812 392.09423828 C229.65209443 394.27707693 230.90865547 396.46162372 232.16210938 398.64794922 C235.12475015 403.812106 238.12014065 408.94732948 241.21875 414.03125 C241.78118408 414.9699292 242.34361816 415.9086084 242.9230957 416.87573242 C243.96637767 418.6145357 245.02615216 420.34360694 246.10620117 422.05981445 C249.40764778 427.61727826 250.8621169 432.59997413 249.609375 439.08203125 C247.171875 442.14453125 247.171875 442.14453125 244.609375 444.08203125 C244.279375 444.41203125 243.949375 444.74203125 243.609375 445.08203125 C240.96686055 445.18369292 238.35035094 445.21933078 235.7072258 445.21345901 C234.86507147 445.21551165 234.02291714 445.21756428 233.15524298 445.21967912 C230.29641319 445.22539223 227.43763093 445.2238866 224.57879639 445.22247314 C222.52322084 445.22505432 220.4676458 445.22806678 218.41207147 445.23147655 C212.73459605 445.23957899 207.05713325 445.24133791 201.37965274 445.24207401 C195.26772135 445.24391897 189.1557966 445.25146347 183.04386902 445.25820923 C168.96781245 445.27252637 154.89176003 445.27832221 140.81569792 445.28290117 C133.86361016 445.28523496 126.91152324 445.28883738 119.95943612 445.29259655 C96.17353899 445.30543425 72.38764232 445.31615309 48.60174179 445.31959915 C47.10775686 445.31982079 45.61377193 445.32004257 44.11978699 445.3202645 C42.62213684 445.32048515 41.12448669 445.32070563 39.62683654 445.32092595 C36.62215535 445.32136851 33.61747416 445.32181562 30.61279297 445.32226562 C29.86780315 445.32237502 29.12281332 445.32248441 28.35524805 445.32259711 C4.19446327 445.32622841 -19.96629153 445.34215006 -44.12706483 445.36545599 C-69.65584762 445.39003661 -95.18461326 445.40377118 -120.71340823 445.40496707 C-123.51439079 445.40513853 -126.31537334 445.40535396 -129.1163559 445.4056015 C-129.80606437 445.40565727 -130.49577284 445.40571304 -131.20638158 445.4057705 C-142.31964826 445.40692252 -153.43288424 445.41795743 -164.54614054 445.43248856 C-175.7112223 445.44683528 -186.87626513 445.44984783 -198.04135713 445.44204858 C-204.09351858 445.43812953 -210.14557645 445.43913259 -216.1977253 445.45310593 C-221.73323964 445.46576997 -227.26857176 445.46471372 -232.80408558 445.45251521 C-234.81153551 445.45054513 -236.81899803 445.45369652 -238.82643023 445.46235958 C-241.54621484 445.47335787 -244.26534563 445.46603146 -246.98511124 445.45396805 C-248.16583243 445.46536084 -248.16583243 445.46536084 -249.37040657 445.47698379 C-253.88664422 445.43346589 -256.79638313 444.87476203 -260.390625 442.08203125 C-263.11407732 438.01955681 -263.03368031 433.80526269 -262.390625 429.08203125 C-261.35706645 426.16997653 -259.87611118 423.64879633 -258.265625 421.01953125 C-257.59889771 419.87677734 -257.59889771 419.87677734 -256.91870117 418.7109375 C-255.94385377 417.0444293 -254.96032217 415.38297788 -253.96923828 413.72607422 C-252.33756042 410.99315259 -250.73406565 408.24530363 -249.13671875 405.4921875 C-246.79747755 401.46246454 -244.44939244 397.43812627 -242.09375 393.41796875 C-238.35427911 387.02921133 -234.64937466 380.62087049 -230.953125 374.20703125 C-230.33091064 373.12744141 -229.70869629 372.04785156 -229.06762695 370.93554688 C-227.80550983 368.74520605 -226.54354715 366.55477623 -225.28173828 364.36425781 C-222.15382352 358.93543183 -219.02204052 353.50883844 -215.890625 348.08203125 C-214.64060621 345.91537542 -213.39060622 343.74870875 -212.140625 341.58203125 C-200.890625 322.08203125 -200.890625 322.08203125 -189.640625 302.58203125 C-189.02179443 301.50937012 -188.40296387 300.43670898 -187.76538086 299.33154297 C-186.51626982 297.16646054 -185.26708371 295.00142143 -184.01782227 292.83642578 C-180.87860191 287.39587419 -177.74071937 281.95455909 -174.60546875 276.51171875 C-167.98839608 265.02754305 -161.34428523 253.56006231 -154.65771484 242.11621094 C-148.49143446 231.55582843 -142.3856655 220.96076359 -136.28173828 210.36425781 C-133.15382352 204.93543183 -130.02204052 199.50883844 -126.890625 194.08203125 C-125.64060621 191.91537542 -124.39060622 189.74870875 -123.140625 187.58203125 C-110.640625 165.91536458 -98.140625 144.24869792 -85.640625 122.58203125 C-85.02179443 121.50937012 -84.40296387 120.43670898 -83.76538086 119.33154297 C-82.51626982 117.16646054 -81.26708371 115.00142143 -80.01782227 112.83642578 C-76.87860191 107.39587419 -73.74071937 101.95455909 -70.60546875 96.51171875 C-63.98921383 85.02896228 -57.34672489 73.56242224 -50.65991211 62.12060547 C-46.37817386 54.78890309 -42.12893865 47.4389079 -37.890625 40.08203125 C-36.02314093 36.84468464 -34.15522013 33.60759049 -32.28710938 30.37060547 C-30.99543768 28.13079886 -29.70512689 25.89020701 -28.41601562 23.64892578 C-26.49537873 20.31151107 -24.56864529 16.97768465 -22.640625 13.64453125 C-22.05603516 12.62552734 -21.47144531 11.60652344 -20.86914062 10.55664062 C-20.32451172 9.61755859 -19.77988281 8.67847656 -19.21875 7.7109375 C-18.7434082 6.8866626 -18.26806641 6.0623877 -17.77832031 5.21313477 C-13.61119378 -1.18638097 -7.12007014 -2.73401386 0 0 Z M-7.390625 35.08203125 C-14.7758146 47.85519831 -22.14567845 60.63644901 -29.45361328 73.45397949 C-35.27990853 83.67276626 -41.16111819 93.85727666 -47.10400391 104.00878906 C-51.55978844 111.63108903 -55.95459646 119.28734436 -60.328125 126.95703125 C-67.35666007 139.28228321 -74.43302934 151.57925192 -81.53173828 163.86425781 C-84.65387103 169.26873766 -87.77208381 174.67547843 -90.890625 180.08203125 C-94.62699415 186.5597001 -98.36410847 193.03693108 -102.10546875 199.51171875 C-108.92565137 211.31832609 -115.7138576 223.14230125 -122.46798706 234.98675537 C-127.62479108 244.02674833 -132.84606269 253.02728446 -138.10400391 262.00878906 C-142.55978844 269.63108903 -146.95459646 277.28734436 -151.328125 284.95703125 C-158.35666007 297.28228321 -165.43302934 309.57925192 -172.53173828 321.86425781 C-175.65387105 327.2687377 -178.77203704 332.67550537 -181.890625 338.08203125 C-183.14060622 340.24870875 -184.39060621 342.41537542 -185.640625 344.58203125 C-186.56875 346.19078125 -186.56875 346.19078125 -187.515625 347.83203125 C-189.390625 351.08203125 -191.265625 354.33203125 -193.140625 357.58203125 C-193.75977783 358.65525635 -194.37893066 359.72848145 -195.0168457 360.83422852 C-196.2626827 362.9936252 -197.50861318 365.15296794 -198.75463867 367.31225586 C-201.94411453 372.83970722 -205.13179385 378.36818246 -208.31640625 383.8984375 C-209.61194157 386.14715708 -210.90751396 388.3958553 -212.203125 390.64453125 C-213.13427124 392.26198242 -213.13427124 392.26198242 -214.08422852 393.91210938 C-216.8817887 398.76444858 -219.69182651 403.60772431 -222.5546875 408.421875 C-223.26467896 409.61671509 -223.26467896 409.61671509 -223.98901367 410.83569336 C-224.8548802 412.28817065 -225.72458036 413.73837243 -226.59887695 415.18579102 C-228.69508506 418.40835547 -228.69508506 418.40835547 -229.390625 422.08203125 C-82.210625 422.08203125 64.969375 422.08203125 216.609375 422.08203125 C215.21148455 418.58730514 213.89221305 415.63209637 212.0625 412.40625 C211.55485107 411.5088208 211.04720215 410.6113916 210.52416992 409.68676758 C209.9747876 408.72407959 209.42540527 407.7613916 208.859375 406.76953125 C208.28227783 405.75334717 207.70518066 404.73716309 207.1105957 403.69018555 C202.48330836 395.56356287 197.77742353 387.48385226 193.05151367 379.41430664 C188.54226332 371.70654094 184.09482065 363.96452788 179.671875 356.20703125 C172.64355392 343.88165795 165.56696981 331.58480911 158.46826172 319.29980469 C155.34612895 313.8953248 152.22796296 308.48855713 149.109375 303.08203125 C147.85939378 300.91535375 146.60939379 298.74868708 145.359375 296.58203125 C142.859375 292.24869792 140.359375 287.91536458 137.859375 283.58203125 C137.24070557 282.50969238 136.62203613 281.43735352 135.98461914 280.33251953 C134.7337302 278.16426861 133.48291648 275.99597428 132.23217773 273.82763672 C129.12139165 268.4348521 126.00933262 263.04281032 122.89453125 257.65234375 C116.07434863 245.84573641 109.2861424 234.02176125 102.53201294 222.17730713 C97.93543277 214.11939913 93.2961334 206.08785339 88.609375 198.08203125 C83.5775681 189.48680453 78.60548428 180.85890995 73.671875 172.20703125 C66.64333993 159.88177929 59.56697066 147.58481058 52.46826172 135.29980469 C48.71959466 128.81078029 44.97628833 122.31866175 41.23193359 115.82714844 C38.12119161 110.43454811 35.00924173 105.04265303 31.89453125 99.65234375 C26.02944108 89.49906535 20.17791094 79.33856576 14.36938477 69.15283203 C11.71865309 64.50458386 9.06154643 59.85999577 6.40283203 55.21630859 C5.25620278 53.21243897 4.11118671 51.20764485 2.96826172 49.20166016 C1.56431117 46.74079794 0.15117911 44.28550835 -1.265625 41.83203125 C-1.66434814 41.12876709 -2.06307129 40.42550293 -2.47387695 39.70092773 C-3.38959573 38.12701697 -4.38156202 36.59779109 -5.390625 35.08203125 C-6.050625 35.08203125 -6.710625 35.08203125 -7.390625 35.08203125 Z " fill="#000000" transform="translate(262.390625,33.91796875)"/>
</svg>
